# xmcd
#
# Track frame offsets:
#	150
#	24930
#	42872
#	61701
#	79354
#	104559
#	127575
#	150383
#	172691
#	198653
#	216667
#	231644
#	249418
#	269057
#
# Disc length: 3806 seconds
#
# Revision: 12
# Processed by: cddbd v1.5.2PL0 Copyright (c) Steve Scherf et al.
# Submitted via: Jack! The Knife 20 Magnifico
#
DISCID=be0edc0e
DTITLE=Scorpions - Eye II Eye
DYEAR=1999
DGENRE=Hard Rock
TTITLE0=Mysterious
TTITLE1=To Be No. 1
TTITLE2=Obsession
TTITLE3=10 Light Years Away
TTITLE4=Mind Like a Tree
TTITLE5=Eye To Eye
TTITLE6=What U Give U Get Back
TTITLE7=Skywriter
TTITLE8=Yellow Butterfly
TTITLE9=Freshly Squeezed
TTITLE10=Priscilla
TTITLE11=Du Bist So Schmutzig
TTITLE12=Aleyah
TTITLE13=A Moment In A Million Years
EXTD=Peter Wolf
EXTT0=Rieckermann, Schenker, Jabs, Byron
EXTT1=Wolf, Jabs
EXTT2=Meine, Wolf
EXTT3=Jones, Frederiksen, Meine, Schenker
EXTT4=Schenker, Wolf
EXTT5=Rudolf Schenker
EXTT6=Schenker, Wolf
EXTT7=Rudolf Schenker
EXTT8=Schenker, Frederiksen
EXTT9=Schenker, Wolf
EXTT10=Rudolf Schenker
EXTT11=Jabs, Schenker
EXTT12=Rudolf Schenker
EXTT13=Klaus Meine
PLAYORDER=
